<?xml version="1.0" encoding="utf-8"?>
<!-- Generator: Adobe Illustrator 22.1.0, SVG Export Plug-In . SVG Version: 6.00 Build 0)  -->
<svg version="1.1" id="Layer_1" xmlns="http://www.w3.org/2000/svg" xmlns:xlink="http://www.w3.org/1999/xlink" x="0px" y="0px"
	 viewBox="0 0 251 132" style="enable-background:new 0 0 251 132;" xml:space="preserve">
<style type="text/css">
	.st0{opacity:0.7;fill:#F05A28;enable-background:new    ;}
	.st1{fill:#F05A28;}
	.st2{fill:url(#SVGID_1_);}
	.st3{fill:url(#SVGID_2_);}
	.st4{fill:url(#SVGID_3_);}
	.st5{fill:url(#SVGID_4_);}
	.st6{fill:url(#SVGID_5_);}
	.st7{fill:url(#SVGID_6_);}
	.st8{fill:url(#SVGID_7_);}
	.st9{fill:url(#SVGID_8_);}
	.st10{fill:url(#SVGID_9_);}
	.st11{fill:url(#SVGID_10_);}
	.st12{fill:url(#SVGID_11_);}
	.st13{fill:url(#SVGID_12_);}
	.st14{fill:url(#SVGID_13_);}
	.st15{fill:url(#SVGID_14_);}
	.st16{fill:url(#SVGID_15_);}
	.st17{fill:url(#SVGID_16_);}
	.st18{fill:url(#SVGID_17_);}
	.st19{fill:url(#SVGID_18_);}
	.st20{fill:url(#SVGID_19_);}
	.st21{fill:url(#SVGID_20_);}
	.st22{fill:url(#SVGID_21_);}
	.st23{fill:url(#SVGID_22_);}
	.st24{fill:url(#SVGID_23_);}
	.st25{fill:url(#SVGID_24_);}
	.st26{fill:url(#SVGID_25_);}
	.st27{fill:url(#SVGID_26_);}
	.st28{fill:url(#SVGID_27_);}
	.st29{fill:url(#SVGID_28_);}
	.st30{fill:url(#SVGID_29_);}
</style>
<g>
	<path class="st0" d="M110.3,16.8c49.5,19.7,90.1,29.3,120,7.8c-4.2,1.6-8.3,3-12.5,3.9s-8.2,1.5-12.3,1.7
		c-8.2,0.5-16.2-0.3-24.2-1.7c-16-2.9-31.9-8.2-47.9-13.8c-4-1.4-8-2.8-12-4.3l-6-2.2l-1.5-0.5L112,7.1c-1.1-0.4-2.3-0.8-3.4-1.1
		c-4.7-1.3-9.4-2.3-14.3-2.8c-4.9-0.5-9.9-0.5-14.8,0.1C74.6,3.8,69.8,5,65.2,6.8c-4.5,1.8-8.8,4.1-12.7,6.8
		c-3.9,2.8-7.3,6-10.3,9.5c-1.5,1.8-2.8,3.6-4.1,5.6c-1.2,1.9-2.3,3.9-3.1,6C35.1,34.7,60.7-2.9,110.3,16.8z"/>
	<path class="st1" d="M110.3,16.8C60.7-2.9,35.1,34.7,35.1,34.7c7-5.6,14.5-9.7,22.1-12.3c3.8-1.3,7.7-2.2,11.5-2.8
		c3.9-0.5,7.7-0.7,11.5-0.5c3.8,0.2,7.6,0.8,11.3,1.6c3.7,0.9,7.4,2.1,11,3.4c0.9,0.4,1.8,0.8,2.7,1.1l1.3,0.5l1.5,0.6
		c2,0.9,4.1,1.7,6.1,2.6c2.1,0.8,4.1,1.6,6.2,2.4c2.1,0.8,4.2,1.6,6.3,2.3c8.4,3,17.1,5.5,25.9,7.4l3.3,0.7l3.4,0.6
		c1.1,0.2,2.3,0.4,3.4,0.5c1.1,0.2,2.3,0.3,3.4,0.5c4.6,0.5,9.2,0.9,13.9,0.9c9.3,0,18.8-1.2,27.7-4.5c8.8-3.2,16.9-8.4,22.7-15.4
		C200.4,46.1,159.8,36.6,110.3,16.8z"/>
	<g>
		
			<linearGradient id="SVGID_1_" gradientUnits="userSpaceOnUse" x1="20.5138" y1="3.977" x2="20.5138" y2="92.1298" gradientTransform="matrix(1 0 0 -1 0 132)">
			<stop  offset="0" style="stop-color:#2B388F"/>
			<stop  offset="1" style="stop-color:#00ADEE"/>
		</linearGradient>
		<path class="st2" d="M1.2,95.2h18.2c3.7,0,5.5-1.8,5.5-3.9c0-2.4-2.1-4-4.2-4.7c-8-2.7-11.7-3.9-14.8-7C2.5,76.2,1,71.7,1,66.7
			c0-8.8,4.7-16.1,13.7-18c1.5-0.4,3.2-0.5,9.4-0.5h8.3V63H20.5c-3.1,0-4.3,1.7-4.3,3.9c0,2.2,1.3,3.9,4,4.7
			c6.1,1.8,11,3.2,14.3,6.1c3.7,3.1,5.5,8,5.5,13.3c0,11.4-8.5,19-18.9,19h-20L1.2,95.2L1.2,95.2z"/>
		
			<linearGradient id="SVGID_2_" gradientUnits="userSpaceOnUse" x1="63.9616" y1="3.977" x2="63.9616" y2="92.1298" gradientTransform="matrix(1 0 0 -1 0 132)">
			<stop  offset="0" style="stop-color:#2B388F"/>
			<stop  offset="1" style="stop-color:#00ADEE"/>
		</linearGradient>
		<path class="st3" d="M85.9,48.2V110H70.7V101H57.2v8.9H42V90.8C42,61.4,60.4,48.2,85.9,48.2z M70.7,86.3V66
			c-8.2,3.2-12.3,10.3-13.2,20.2H70.7z"/>
		
			<linearGradient id="SVGID_3_" gradientUnits="userSpaceOnUse" x1="123.3105" y1="3.977" x2="123.3105" y2="92.1298" gradientTransform="matrix(1 0 0 -1 0 132)">
			<stop  offset="0" style="stop-color:#2B388F"/>
			<stop  offset="1" style="stop-color:#00ADEE"/>
		</linearGradient>
		<path class="st4" d="M88.6,48.2h15.2c8.3,0,16.4,4.5,19.5,8.9c3.1-4.5,11.2-8.9,19.5-8.9H158V110h-15.2V63.4
			c-5.8,0.3-12.5,4.4-12.5,13V110h-14V76.4c0-8.6-6.7-12.7-12.5-13V110H88.6V48.2z"/>
		
			<linearGradient id="SVGID_4_" gradientUnits="userSpaceOnUse" x1="175.4204" y1="3.977" x2="175.4204" y2="92.1298" gradientTransform="matrix(1 0 0 -1 0 132)">
			<stop  offset="0" style="stop-color:#2B388F"/>
			<stop  offset="1" style="stop-color:#00ADEE"/>
		</linearGradient>
		<path class="st5" d="M160.2,79.1c0-8.4,6.8-15.2,15.2-15.2c8.3,0,15.2,6.8,15.2,15.2c0,8.4-6.9,15.2-15.2,15.2
			C167,94.3,160.2,87.5,160.2,79.1z"/>
		
			<linearGradient id="SVGID_5_" gradientUnits="userSpaceOnUse" x1="212.2724" y1="3.977" x2="212.2724" y2="92.1298" gradientTransform="matrix(1 0 0 -1 0 132)">
			<stop  offset="0" style="stop-color:#2B388F"/>
			<stop  offset="1" style="stop-color:#00ADEE"/>
		</linearGradient>
		<path class="st6" d="M208,63v8.9h16.1v14.3H208V110h-15.2V48.2h38.9V63H208z"/>
		
			<linearGradient id="SVGID_6_" gradientUnits="userSpaceOnUse" x1="242.0358" y1="3.977" x2="242.0358" y2="92.1298" gradientTransform="matrix(1 0 0 -1 0 132)">
			<stop  offset="0" style="stop-color:#2B388F"/>
			<stop  offset="1" style="stop-color:#00ADEE"/>
		</linearGradient>
		<path class="st7" d="M234.4,48.2h15.2V110h-15.2V48.2z"/>
		
			<linearGradient id="SVGID_7_" gradientUnits="userSpaceOnUse" x1="14.8759" y1="3.977" x2="14.8759" y2="92.1298" gradientTransform="matrix(1 0 0 -1 0 132)">
			<stop  offset="0" style="stop-color:#2B388F"/>
			<stop  offset="1" style="stop-color:#00ADEE"/>
		</linearGradient>
		<path class="st8" d="M6.9,121.2c0-4.4,3.6-8,8-8c4.4,0,8,3.6,8,8c0,4.4-3.6,8-8,8C10.5,129.2,6.9,125.6,6.9,121.2z"/>
		
			<linearGradient id="SVGID_8_" gradientUnits="userSpaceOnUse" x1="242.0357" y1="3.977" x2="242.0357" y2="92.1298" gradientTransform="matrix(1 0 0 -1 0 132)">
			<stop  offset="0" style="stop-color:#2B388F"/>
			<stop  offset="1" style="stop-color:#00ADEE"/>
		</linearGradient>
		<path class="st9" d="M234.1,36.2c0-4.4,3.6-8,8-8c4.4,0,8,3.6,8,8s-3.6,8-8,8C237.6,44.1,234.1,40.6,234.1,36.2z"/>
		<g>
			
				<linearGradient id="SVGID_9_" gradientUnits="userSpaceOnUse" x1="94.1492" y1="3.977" x2="94.1492" y2="92.1298" gradientTransform="matrix(1 0 0 -1 0 132)">
				<stop  offset="0" style="stop-color:#2B388F"/>
				<stop  offset="1" style="stop-color:#00ADEE"/>
			</linearGradient>
			<path class="st10" d="M98,120.7c-0.5,2.4-2.1,3.7-4.3,3.7c-2.4,0-3.9-1.6-3.9-3.9c0-2.7,1.7-5.5,4.8-5.5c2.2,0,3.6,1.3,3.7,3.1
				c0,0,0,0.1,0,0.1h-1.6c-0.1-1.1-0.8-1.8-2.1-1.8c-2.2,0-3.1,2.1-3.1,4c0,1.6,0.8,2.6,2.3,2.6c1.3,0,2.2-0.8,2.5-2l0.1-0.2h-2.2
				l0.3-1.3h3.7L98,120.7z"/>
			
				<linearGradient id="SVGID_10_" gradientUnits="userSpaceOnUse" x1="104.4809" y1="3.977" x2="104.4809" y2="92.1298" gradientTransform="matrix(1 0 0 -1 0 132)">
				<stop  offset="0" style="stop-color:#2B388F"/>
				<stop  offset="1" style="stop-color:#00ADEE"/>
			</linearGradient>
			<path class="st11" d="M100.1,121.5c0-0.2,0-0.5,0.1-0.8l1.1-5.6h1.6l-1.1,5.5c-0.1,0.2-0.1,0.5-0.1,0.7c0,1,0.7,1.6,1.9,1.6
				c1.2,0,2.1-0.7,2.3-1.9l1.2-5.9h1.6l-1.3,6.2c-0.4,1.9-1.8,3.1-4.1,3.1C101.3,124.4,100.1,123.1,100.1,121.5z M103.4,113.4
				c0-0.4,0.3-0.8,0.8-0.8c0.4,0,0.8,0.3,0.8,0.8c0,0.4-0.3,0.8-0.8,0.8C103.7,114.1,103.4,113.8,103.4,113.4z M105.8,113.4
				c0-0.4,0.3-0.8,0.8-0.8s0.8,0.3,0.8,0.8c0,0.4-0.3,0.8-0.8,0.8C106.2,114.1,105.8,113.8,105.8,113.4z"/>
			
				<linearGradient id="SVGID_11_" gradientUnits="userSpaceOnUse" x1="114.2926" y1="3.977" x2="114.2926" y2="92.1298" gradientTransform="matrix(1 0 0 -1 0 132)">
				<stop  offset="0" style="stop-color:#2B388F"/>
				<stop  offset="1" style="stop-color:#00ADEE"/>
			</linearGradient>
			<path class="st12" d="M116.9,118.1c-0.1-1.1-0.9-1.7-2.1-1.7c-1.8,0-3.1,1.7-3.1,4c0,1.6,0.8,2.6,2.2,2.6c1.1,0,2-0.6,2.4-1.7
				h1.6c-0.4,1.9-2.1,3.1-4.1,3.1c-2.4,0-3.8-1.5-3.8-3.9c0-3.2,2-5.5,4.9-5.5c2.1,0,3.5,1.2,3.6,3.1c0,0.1,0,0.2,0,0.2h-1.6
				C116.9,118.3,116.9,118.2,116.9,118.1z"/>
			
				<linearGradient id="SVGID_12_" gradientUnits="userSpaceOnUse" x1="124.3779" y1="3.977" x2="124.3779" y2="92.1298" gradientTransform="matrix(1 0 0 -1 0 132)">
				<stop  offset="0" style="stop-color:#2B388F"/>
				<stop  offset="1" style="stop-color:#00ADEE"/>
			</linearGradient>
			<path class="st13" d="M120,121.5c0-0.2,0-0.5,0.1-0.8l1.1-5.6h1.6l-1.1,5.5c-0.1,0.2-0.1,0.5-0.1,0.7c0,1,0.7,1.6,1.9,1.6
				c1.2,0,2.1-0.7,2.3-1.9l1.2-5.9h1.6l-1.3,6.2c-0.4,1.9-1.8,3.1-4.1,3.1C121.2,124.4,120,123.1,120,121.5z M123.3,113.4
				c0-0.4,0.3-0.8,0.8-0.8c0.4,0,0.8,0.3,0.8,0.8c0,0.4-0.3,0.8-0.8,0.8C123.6,114.1,123.3,113.8,123.3,113.4z M125.7,113.4
				c0-0.4,0.3-0.8,0.8-0.8c0.4,0,0.8,0.3,0.8,0.8c0,0.4-0.3,0.8-0.8,0.8C126.1,114.1,125.7,113.8,125.7,113.4z"/>
			
				<linearGradient id="SVGID_13_" gradientUnits="userSpaceOnUse" x1="134.9559" y1="3.977" x2="134.9559" y2="92.1298" gradientTransform="matrix(1 0 0 -1 0 132)">
				<stop  offset="0" style="stop-color:#2B388F"/>
				<stop  offset="1" style="stop-color:#00ADEE"/>
			</linearGradient>
			<path class="st14" d="M129.3,124.2l1.9-9.1h1.9l1.3,7h0l4.2-7h2l-1.9,9.1h-1.5l1.4-6.6h-0.1l-4,6.6h-1.1l-1.2-6.6h-0.1l-1.4,6.6
				H129.3z"/>
			
				<linearGradient id="SVGID_14_" gradientUnits="userSpaceOnUse" x1="146.1907" y1="3.977" x2="146.1907" y2="92.1298" gradientTransform="matrix(1 0 0 -1 0 132)">
				<stop  offset="0" style="stop-color:#2B388F"/>
				<stop  offset="1" style="stop-color:#00ADEE"/>
			</linearGradient>
			<path class="st15" d="M141.8,121.5c0-0.2,0-0.5,0.1-0.8l1.1-5.6h1.6l-1.1,5.5c-0.1,0.2-0.1,0.5-0.1,0.7c0,1,0.7,1.6,1.9,1.6
				c1.2,0,2.1-0.7,2.3-1.9l1.2-5.9h1.6l-1.3,6.2c-0.4,1.9-1.8,3.1-4.1,3.1C143,124.4,141.8,123.1,141.8,121.5z M145.1,113.4
				c0-0.4,0.3-0.8,0.8-0.8c0.4,0,0.8,0.3,0.8,0.8c0,0.4-0.3,0.8-0.8,0.8C145.5,114.1,145.1,113.8,145.1,113.4z M147.5,113.4
				c0-0.4,0.3-0.8,0.8-0.8c0.4,0,0.8,0.3,0.8,0.8c0,0.4-0.3,0.8-0.8,0.8C147.9,114.1,147.5,113.8,147.5,113.4z"/>
			
				<linearGradient id="SVGID_15_" gradientUnits="userSpaceOnUse" x1="155.1813" y1="3.977" x2="155.1813" y2="92.1298" gradientTransform="matrix(1 0 0 -1 0 132)">
				<stop  offset="0" style="stop-color:#2B388F"/>
				<stop  offset="1" style="stop-color:#00ADEE"/>
			</linearGradient>
			<path class="st16" d="M151.1,123.1l6.1-6.6v0h-4.5l0.3-1.4h6.6l-0.2,1.1l-6.1,6.6v0h4.8l-0.3,1.4h-6.8L151.1,123.1z"/>
			
				<linearGradient id="SVGID_16_" gradientUnits="userSpaceOnUse" x1="167.6614" y1="3.977" x2="167.6614" y2="92.1298" gradientTransform="matrix(1 0 0 -1 0 132)">
				<stop  offset="0" style="stop-color:#2B388F"/>
				<stop  offset="1" style="stop-color:#00ADEE"/>
			</linearGradient>
			<path class="st17" d="M163.6,124.2l1.9-9.1h3.6c1.6,0,2.6,0.8,2.6,2s-0.8,2.1-2,2.4v0c1,0.2,1.6,0.9,1.6,1.8
				c0,1.7-1.4,2.9-3.4,2.9L163.6,124.2L163.6,124.2z M167.5,122.9c1.2,0,2-0.7,2-1.6c0-0.8-0.5-1.2-1.6-1.2h-1.8l-0.6,2.8H167.5z
				 M166.4,118.9h1.6c1.2,0,2-0.6,2-1.5c0-0.7-0.5-1.1-1.5-1.1h-1.6L166.4,118.9z"/>
			
				<linearGradient id="SVGID_17_" gradientUnits="userSpaceOnUse" x1="174.5857" y1="3.977" x2="174.5857" y2="92.1298" gradientTransform="matrix(1 0 0 -1 0 132)">
				<stop  offset="0" style="stop-color:#2B388F"/>
				<stop  offset="1" style="stop-color:#00ADEE"/>
			</linearGradient>
			<path class="st18" d="M172.8,124.2l1.9-9.1h1.6l-1.9,9.1H172.8z"/>
			
				<linearGradient id="SVGID_18_" gradientUnits="userSpaceOnUse" x1="180.9763" y1="3.977" x2="180.9763" y2="92.1298" gradientTransform="matrix(1 0 0 -1 0 132)">
				<stop  offset="0" style="stop-color:#2B388F"/>
				<stop  offset="1" style="stop-color:#00ADEE"/>
			</linearGradient>
			<path class="st19" d="M182.3,115.1c1.8,0,2.8,1,2.8,2.5c0,1.4-0.9,2.6-2.4,3l1.2,3.6h-1.7l-1.1-3.4h-1.9l-0.7,3.4h-1.6l1.9-9.1
				L182.3,115.1L182.3,115.1z M181.4,119.5c1.2,0,2-0.7,2-1.8c0-0.8-0.5-1.3-1.4-1.3h-1.8l-0.7,3.1H181.4z"/>
			
				<linearGradient id="SVGID_19_" gradientUnits="userSpaceOnUse" x1="188.9542" y1="3.977" x2="188.9542" y2="92.1298" gradientTransform="matrix(1 0 0 -1 0 132)">
				<stop  offset="0" style="stop-color:#2B388F"/>
				<stop  offset="1" style="stop-color:#00ADEE"/>
			</linearGradient>
			<path class="st20" d="M191.7,124.2h-5.8l1.9-9.1h1.6l-1.6,7.7h4.2L191.7,124.2z"/>
			
				<linearGradient id="SVGID_20_" gradientUnits="userSpaceOnUse" x1="195.468" y1="3.977" x2="195.468" y2="92.1298" gradientTransform="matrix(1 0 0 -1 0 132)">
				<stop  offset="0" style="stop-color:#2B388F"/>
				<stop  offset="1" style="stop-color:#00ADEE"/>
			</linearGradient>
			<path class="st21" d="M193.7,124.2l1.9-9.1h1.6l-1.9,9.1H193.7z"/>
			
				<linearGradient id="SVGID_21_" gradientUnits="userSpaceOnUse" x1="202.3238" y1="3.977" x2="202.3238" y2="92.1298" gradientTransform="matrix(1 0 0 -1 0 132)">
				<stop  offset="0" style="stop-color:#2B388F"/>
				<stop  offset="1" style="stop-color:#00ADEE"/>
			</linearGradient>
			<path class="st22" d="M197.7,124.2l1.9-9.1h1.6l-0.9,4.2h0l4.5-4.2h2l-4.4,4.2l2.6,5h-1.8l-2.1-4l-1.2,1.1l-0.6,2.8L197.7,124.2
				L197.7,124.2z"/>
			
				<linearGradient id="SVGID_22_" gradientUnits="userSpaceOnUse" x1="211.2323" y1="3.977" x2="211.2323" y2="92.1298" gradientTransform="matrix(1 0 0 -1 0 132)">
				<stop  offset="0" style="stop-color:#2B388F"/>
				<stop  offset="1" style="stop-color:#00ADEE"/>
			</linearGradient>
			<path class="st23" d="M211.8,115.1c2.3,0,3.8,1.3,3.8,3.6c0,3.2-2,5.5-4.9,5.5h-3.9l1.9-9.1H211.8z M208.8,122.8h1.8
				c2,0,3.4-1.6,3.4-3.9c0-1.6-0.8-2.4-2.5-2.4h-1.3L208.8,122.8z"/>
			
				<linearGradient id="SVGID_23_" gradientUnits="userSpaceOnUse" x1="221.564" y1="3.977" x2="221.564" y2="92.1298" gradientTransform="matrix(1 0 0 -1 0 132)">
				<stop  offset="0" style="stop-color:#2B388F"/>
				<stop  offset="1" style="stop-color:#00ADEE"/>
			</linearGradient>
			<path class="st24" d="M217.3,120.7c0-0.4,0.1-0.9,0.2-1.3h6.6c0-0.2,0-0.3,0-0.4c0.1-1.6-0.8-2.5-2.2-2.5c-1,0-1.8,0.4-2.3,1.2
				h-1.7c0.7-1.6,2.2-2.7,4.1-2.7c2.3,0,3.7,1.5,3.7,3.8c0,3.3-1.9,5.6-4.8,5.6C218.8,124.4,217.3,123,217.3,120.7z M223.9,120.6
				H219c0,0.1,0,0.1,0,0.2c0,1.3,0.8,2.1,2.1,2.1C222.5,123,223.6,122.1,223.9,120.6z"/>
			
				<linearGradient id="SVGID_24_" gradientUnits="userSpaceOnUse" x1="231.403" y1="3.977" x2="231.403" y2="92.1298" gradientTransform="matrix(1 0 0 -1 0 132)">
				<stop  offset="0" style="stop-color:#2B388F"/>
				<stop  offset="1" style="stop-color:#00ADEE"/>
			</linearGradient>
			<path class="st25" d="M232,115.1c2.3,0,3.8,1.3,3.8,3.6c0,3.2-2,5.5-4.9,5.5H227l1.9-9.1H232z M229,122.8h1.8
				c2,0,3.4-1.6,3.4-3.9c0-1.6-0.8-2.4-2.5-2.4h-1.3L229,122.8z"/>
			
				<linearGradient id="SVGID_25_" gradientUnits="userSpaceOnUse" x1="238.7104" y1="3.977" x2="238.7104" y2="92.1298" gradientTransform="matrix(1 0 0 -1 0 132)">
				<stop  offset="0" style="stop-color:#2B388F"/>
				<stop  offset="1" style="stop-color:#00ADEE"/>
			</linearGradient>
			<path class="st26" d="M236.9,124.2l1.9-9.1h1.6l-1.9,9.1H236.9z"/>
			
				<linearGradient id="SVGID_26_" gradientUnits="userSpaceOnUse" x1="245.0737" y1="3.977" x2="245.0737" y2="92.1298" gradientTransform="matrix(1 0 0 -1 0 132)">
				<stop  offset="0" style="stop-color:#2B388F"/>
				<stop  offset="1" style="stop-color:#00ADEE"/>
			</linearGradient>
			<path class="st27" d="M246.4,115.1c1.8,0,2.8,1,2.8,2.5c0,1.4-0.9,2.6-2.4,3l1.2,3.6h-1.7l-1.1-3.4h-1.9l-0.7,3.4H241l1.9-9.1
				L246.4,115.1L246.4,115.1z M245.5,119.5c1.2,0,2-0.7,2-1.8c0-0.8-0.5-1.3-1.4-1.3h-1.8l-0.7,3.1H245.5z"/>
		</g>
		
			<linearGradient id="SVGID_27_" gradientUnits="userSpaceOnUse" x1="175.8857" y1="3.977" x2="175.8857" y2="92.1298" gradientTransform="matrix(1 0 0 -1 0 132)">
			<stop  offset="0" style="stop-color:#2B388F"/>
			<stop  offset="1" style="stop-color:#00ADEE"/>
		</linearGradient>
		<path class="st28" d="M175.1,113.4c0-0.4,0.3-0.8,0.8-0.8c0.4,0,0.8,0.3,0.8,0.8c0,0.4-0.3,0.8-0.8,0.8
			C175.5,114.1,175.1,113.8,175.1,113.4z"/>
		
			<linearGradient id="SVGID_28_" gradientUnits="userSpaceOnUse" x1="196.7132" y1="3.977" x2="196.7132" y2="92.1298" gradientTransform="matrix(1 0 0 -1 0 132)">
			<stop  offset="0" style="stop-color:#2B388F"/>
			<stop  offset="1" style="stop-color:#00ADEE"/>
		</linearGradient>
		<path class="st29" d="M195.9,113.4c0-0.4,0.3-0.8,0.8-0.8s0.8,0.3,0.8,0.8c0,0.4-0.3,0.8-0.8,0.8
			C196.3,114.1,195.9,113.8,195.9,113.4z"/>
		
			<linearGradient id="SVGID_29_" gradientUnits="userSpaceOnUse" x1="240.0105" y1="3.977" x2="240.0105" y2="92.1298" gradientTransform="matrix(1 0 0 -1 0 132)">
			<stop  offset="0" style="stop-color:#2B388F"/>
			<stop  offset="1" style="stop-color:#00ADEE"/>
		</linearGradient>
		<path class="st30" d="M239.2,113.4c0-0.4,0.3-0.8,0.8-0.8c0.4,0,0.8,0.3,0.8,0.8c0,0.4-0.3,0.8-0.8,0.8
			C239.6,114.1,239.2,113.8,239.2,113.4z"/>
	</g>
</g>
</svg>
